<svg width="48" height="48" viewBox="0 0 48 48" fill="none" xmlns="http://www.w3.org/2000/svg">
  <rect width="48" height="48" rx="12" fill="url(#fffav)"/>
  <path d="M15 19v-3a2 2 0 0 1 2-2h3M33 19v-3a2 2 0 0 0-2-2h-3M15 29v3a2 2 0 0 0 2 2h3M33 29v3a2 2 0 0 1-2 2h-3"
        stroke="#ffffff" stroke-width="2.6" stroke-linecap="round"/>
  <g fill="#ffffff">
    <rect x="20" y="20" width="4" height="4"/>
    <rect x="24" y="24" width="4" height="4"/>
    <rect x="24" y="20" width="4" height="4" fill-opacity="0.45"/>
    <rect x="20" y="24" width="4" height="4" fill-opacity="0.45"/>
  </g>
  <defs>
    <linearGradient id="fffav" x1="0" y1="0" x2="48" y2="48" gradientUnits="userSpaceOnUse">
      <stop stop-color="#6366F1"/>
      <stop offset="1" stop-color="#22C55E"/>
    </linearGradient>
  </defs>
</svg>
